<svg width="146" height="155" viewBox="0 0 146 155" fill="none" xmlns="http://www.w3.org/2000/svg">
<path d="M8.18182 124V115.818L58.3636 40.9091H7.63636V30.9091H71.8182V39.0909L21.6364 114H72.3636V124H8.18182Z" fill="black"/>
<path d="M68.0455 124V30.9091H106.864C113.833 30.9091 119.667 31.8939 124.364 33.8636C129.091 35.8333 132.636 38.5909 135 42.1364C137.394 45.6818 138.591 49.7879 138.591 54.4545C138.591 58 137.848 61.1667 136.364 63.9545C134.879 66.7121 132.833 69 130.227 70.8182C127.621 72.6364 124.606 73.9091 121.182 74.6364V75.5455C124.939 75.7273 128.409 76.7424 131.591 78.5909C134.803 80.4394 137.379 83.0152 139.318 86.3182C141.258 89.5909 142.227 93.4697 142.227 97.9545C142.227 102.955 140.955 107.424 138.409 111.364C135.864 115.273 132.182 118.364 127.364 120.636C122.545 122.879 116.697 124 109.818 124H68.0455ZM90.5455 105.864H104.455C109.333 105.864 112.924 104.939 115.227 103.091C117.561 101.242 118.727 98.6667 118.727 95.3636C118.727 92.9697 118.167 90.9091 117.045 89.1818C115.924 87.4242 114.333 86.0758 112.273 85.1364C110.212 84.1667 107.742 83.6818 104.864 83.6818H90.5455V105.864ZM90.5455 69.1818H103C105.455 69.1818 107.636 68.7727 109.545 67.9545C111.455 67.1364 112.939 65.9545 114 64.4091C115.091 62.8636 115.636 61 115.636 58.8182C115.636 55.697 114.53 53.2424 112.318 51.4545C110.106 49.6667 107.121 48.7727 103.364 48.7727H90.5455V69.1818Z" fill="black"/>
</svg>
